<svg viewBox="0 0 430 114" fill="none" xmlns="http://www.w3.org/2000/svg">
<path d="M45.0495 103.202C36.3463 103.202 27.8384 100.621 20.6019 95.7858C13.3654 90.9505 7.7252 84.078 4.39459 76.0372C1.06399 67.9964 0.19255 59.1485 1.89048 50.6125C3.58841 42.0764 7.77944 34.2355 13.9336 28.0814C20.0877 21.9272 27.9286 17.7362 36.4647 16.0383C45.0007 14.3403 53.8486 15.2118 61.8894 18.5424C69.9302 21.873 76.8028 27.5132 81.638 34.7497C86.4733 41.9862 89.0542 50.494 89.0542 59.1973C89.0422 70.8644 84.4022 82.0502 76.1523 90.3001C67.9025 98.55 56.7166 103.19 45.0495 103.202ZM45.0495 22.6794C37.827 22.6794 30.7666 24.8211 24.7612 28.8338C18.7559 32.8464 14.0753 38.5497 11.3113 45.2225C8.54738 51.8953 7.8242 59.2378 9.23326 66.3216C10.6423 73.4054 14.1203 79.9123 19.2274 85.0194C24.3346 90.1266 30.8415 93.6046 37.9252 95.0136C45.009 96.4227 52.3516 95.6995 59.0244 92.9355C65.6972 90.1716 71.4005 85.491 75.4131 79.4856C79.4258 73.4803 81.5675 66.4199 81.5675 59.1973C81.5556 49.5158 77.7044 40.2343 70.8585 33.3884C64.0126 26.5425 54.7311 22.6913 45.0495 22.6794Z" fill="#FFFFFF"/>
<path d="M89.7144 90.2391C82.3628 82.4974 69.34 65.8738 59.9629 53.6461C69.235 44.5391 80.8325 33.7818 85.1384 29.3408C90.8247 23.3395 90.8697 13.3473 86.8638 9.50649C86.1517 8.62129 85.1384 8.02945 84.0175 7.84402C82.8966 7.65859 81.7467 7.89257 80.7875 8.50127C73.826 12.6122 62.0184 22.2743 47.3752 36.8575C39.6635 26.0551 30.3015 11.982 26.4456 6.85091C21.4795 0.309483 11.6224 -1.34088 7.12139 2.01986C5.24599 3.43017 4.12074 5.26056 5.17097 7.84113C8.5017 16.318 17.8187 32.0864 32.867 52.1008C21.5395 64.5985 8.29165 80.532 0.684988 92.7897C-1.05539 95.5053 0.760005 98.791 3.44559 101.342C6.92635 104.642 11.6224 106.293 12.8526 105.062C19.6341 96.1804 35.0425 79.5568 45.7098 68.3343C55.3119 79.9319 66.4443 92.3396 75.6113 100.291C78.0269 102.452 81.6127 101.161 84.5083 98.926C88.3491 96.0304 90.7647 91.6344 89.7144 90.2391Z" fill="#BF0930"/>
<path d="M114.711 65C112.498 65 111.391 63.8933 111.391 61.68V10.22C111.391 8.00668 112.498 6.90001 114.711 6.90001H143.844C145.504 6.90001 146.334 8.28334 146.334 11.05V13.623C146.334 16.3897 145.504 17.773 143.844 17.773H124.173V29.808H141.603C143.263 29.808 144.093 31.1913 144.093 33.958V36.531C144.093 39.2977 143.263 40.681 141.603 40.681H124.173V54.127H143.927C145.587 54.127 146.417 55.5103 146.417 58.277V60.85C146.417 63.6167 145.587 65 143.927 65H114.711ZM159.938 65C157.724 65 156.618 63.8933 156.618 61.68V9.39001C156.618 7.61935 158.278 6.73401 161.598 6.73401H164.42C167.74 6.73401 169.4 7.61935 169.4 9.39001V54.127H187.328C188.988 54.127 189.818 55.5103 189.818 58.277V60.85C189.818 63.6167 188.988 65 187.328 65H159.938ZM198.603 65C196.389 65 195.283 63.8933 195.283 61.68V10.22C195.283 8.00668 196.389 6.90001 198.603 6.90001H227.736C229.396 6.90001 230.226 8.28334 230.226 11.05V13.623C230.226 16.3897 229.396 17.773 227.736 17.773H208.065V29.808H225.495C227.155 29.808 227.985 31.1913 227.985 33.958V36.531C227.985 39.2977 227.155 40.681 225.495 40.681H208.065V54.127H227.819C229.479 54.127 230.309 55.5103 230.309 58.277V60.85C230.309 63.6167 229.479 65 227.819 65H198.603ZM244.908 65.166C241.588 65.166 239.928 64.2807 239.928 62.51V9.39001C239.928 7.61935 241.588 6.73401 244.908 6.73401H247.813C251.133 6.73401 252.793 7.61935 252.793 9.39001V31.634L253.125 31.717L267.567 8.31101C267.955 7.70235 268.563 7.28735 269.393 7.06601C270.279 6.84468 271.33 6.73401 272.547 6.73401H276.448C279.547 6.73401 281.096 7.14901 281.096 7.97901C281.096 8.47701 280.875 9.05801 280.432 9.72201L264.413 34.29L282.59 62.178C283.033 62.842 283.254 63.423 283.254 63.921C283.254 64.751 281.705 65.166 278.606 65.166H273.792C272.575 65.166 271.524 65.0553 270.638 64.834C269.753 64.6127 269.117 64.1977 268.729 63.589L253.125 38.357L252.793 38.44V62.51C252.793 64.2807 251.133 65.166 247.813 65.166H244.908ZM303.354 65.166C300.034 65.166 298.374 64.2807 298.374 62.51V17.773H285.177C283.517 17.773 282.687 16.3897 282.687 13.623V11.05C282.687 8.28334 283.517 6.90001 285.177 6.90001H324.436C326.096 6.90001 326.926 8.28334 326.926 11.05V13.623C326.926 16.3897 326.096 17.773 324.436 17.773H311.239V62.51C311.239 64.2807 309.579 65.166 306.259 65.166H303.354ZM338.283 65.166C334.963 65.166 333.303 64.2807 333.303 62.51V10.22C333.303 8.00668 334.41 6.90001 336.623 6.90001H352.808C360.002 6.90001 365.231 8.25568 368.495 10.967C371.815 13.6783 373.475 17.524 373.475 22.504C373.475 25.7133 372.562 28.4523 370.736 30.721C368.966 32.9343 366.642 34.5943 363.764 35.701V36.033C364.816 36.4203 365.895 37.361 367.001 38.855C368.108 40.2937 369.021 41.8983 369.74 43.669L377.044 61.929C377.321 62.6483 377.459 63.174 377.459 63.506C377.459 64.6127 375.799 65.166 372.479 65.166H369.076C367.859 65.166 366.808 65.0553 365.922 64.834C365.092 64.5573 364.539 64.087 364.262 63.423L357.705 47.238C356.875 45.578 355.935 44.333 354.883 43.503C353.887 42.673 352.034 42.258 349.322 42.258H346.085V62.51C346.085 64.2807 344.425 65.166 341.105 65.166H338.283ZM346.085 31.219H353.97C355.132 31.219 356.184 30.9147 357.124 30.306C358.12 29.642 358.895 28.7843 359.448 27.733C360.057 26.6263 360.361 25.409 360.361 24.081C360.361 22.1443 359.725 20.6227 358.452 19.516C357.235 18.354 355.547 17.773 353.389 17.773H346.085V31.219ZM383.298 65.166C379.923 65.166 378.235 64.5573 378.235 63.34C378.235 63.1187 378.263 62.8973 378.318 62.676C378.429 62.3993 378.512 62.1227 378.567 61.846L396.827 8.47701C397.27 7.31501 398.847 6.73401 401.558 6.73401H405.874C408.641 6.73401 410.218 7.31501 410.605 8.47701L428.865 61.846C429.031 62.3993 429.114 62.8973 429.114 63.34C429.114 64.5573 427.731 65.166 424.964 65.166H421.312C420.095 65.166 419.071 65.0553 418.241 64.834C417.411 64.5573 416.886 64.087 416.664 63.423L413.344 53.297H393.756L390.436 63.423C390.215 64.0317 389.772 64.4743 389.108 64.751C388.444 65.0277 387.614 65.166 386.618 65.166H383.298ZM397.325 42.341H409.775L405.044 27.567C404.768 26.6817 404.519 25.7963 404.297 24.911C404.131 24.0257 403.965 23.1403 403.799 22.255H403.467C403.301 23.1403 403.135 24.0257 402.969 24.911C402.803 25.7963 402.554 26.6817 402.222 27.567L397.325 42.341Z" fill="#FFFFFF"/>
<path d="M120.477 105.078C120.087 105.078 119.736 105.039 119.424 104.961C119.138 104.857 118.969 104.688 118.917 104.454L112.248 78.831C112.222 78.753 112.196 78.662 112.17 78.558C112.144 78.454 112.131 78.363 112.131 78.285C112.131 77.843 112.69 77.622 113.808 77.622H114.198C114.588 77.622 114.926 77.674 115.212 77.778C115.524 77.856 115.706 78.012 115.758 78.246L120.321 96.03C120.477 96.576 120.62 97.174 120.75 97.824C120.88 98.448 120.997 99.046 121.101 99.618C121.205 100.19 121.27 100.671 121.296 101.061H121.452C121.556 100.645 121.647 100.229 121.725 99.813C121.829 99.397 121.933 98.981 122.037 98.565C122.141 98.149 122.245 97.733 122.349 97.317L127.068 78.285C127.12 78.025 127.289 77.856 127.575 77.778C127.861 77.674 128.199 77.622 128.589 77.622H129.213C129.603 77.622 129.941 77.674 130.227 77.778C130.513 77.856 130.682 78.025 130.734 78.285L135.219 96.03C135.375 96.576 135.505 97.161 135.609 97.785C135.739 98.409 135.856 99.007 135.96 99.579C136.064 100.151 136.129 100.645 136.155 101.061H136.311C136.415 100.645 136.506 100.203 136.584 99.735C136.688 99.267 136.792 98.825 136.896 98.409C137 97.993 137.091 97.642 137.169 97.356L141.888 78.246C141.94 78.012 142.109 77.856 142.395 77.778C142.707 77.674 143.058 77.622 143.448 77.622H143.682C144.8 77.622 145.359 77.843 145.359 78.285C145.359 78.311 145.346 78.389 145.32 78.519C145.294 78.649 145.268 78.753 145.242 78.831L138.495 104.454C138.443 104.688 138.261 104.857 137.949 104.961C137.663 105.039 137.325 105.078 136.935 105.078H135.336C134.946 105.078 134.595 105.039 134.283 104.961C133.997 104.857 133.828 104.688 133.776 104.454L130.071 90.609C129.785 89.543 129.512 88.334 129.252 86.982C129.018 85.63 128.862 84.473 128.784 83.511H128.628C128.55 84.447 128.42 85.474 128.238 86.592C128.082 87.684 127.9 88.581 127.692 89.283L123.636 104.454C123.584 104.688 123.402 104.857 123.09 104.961C122.804 105.039 122.466 105.078 122.076 105.078H120.477ZM153.515 105.234C151.617 105.234 150.031 104.766 148.757 103.83C147.483 102.868 146.846 101.386 146.846 99.384C146.846 97.746 147.236 96.459 148.016 95.523C148.796 94.561 149.823 93.859 151.097 93.417C152.371 92.949 153.762 92.65 155.27 92.52C156.804 92.39 158.312 92.312 159.794 92.286V90.453C159.794 89.569 159.482 88.802 158.858 88.152C158.234 87.502 157.116 87.177 155.504 87.177C154.334 87.177 153.307 87.32 152.423 87.606C151.565 87.866 150.876 88.139 150.356 88.425C149.862 88.685 149.55 88.815 149.42 88.815C149.238 88.815 149.043 88.685 148.835 88.425C148.627 88.165 148.445 87.879 148.289 87.567C148.133 87.229 148.055 86.995 148.055 86.865C148.055 86.527 148.393 86.163 149.069 85.773C149.745 85.383 150.642 85.058 151.76 84.798C152.878 84.512 154.087 84.369 155.387 84.369C156.999 84.369 158.377 84.616 159.521 85.11C160.665 85.578 161.536 86.267 162.134 87.177C162.758 88.087 163.07 89.192 163.07 90.492V99.228C163.07 100.294 163.109 101.178 163.187 101.88C163.265 102.582 163.343 103.115 163.421 103.479C163.499 103.843 163.538 104.064 163.538 104.142C163.538 104.324 163.447 104.48 163.265 104.61C163.109 104.714 162.914 104.805 162.68 104.883C162.446 104.935 162.212 104.974 161.978 105C161.744 105.026 161.562 105.039 161.432 105.039C161.12 105.039 160.873 104.896 160.691 104.61C160.535 104.298 160.405 103.934 160.301 103.518C160.223 103.076 160.145 102.673 160.067 102.309C159.573 102.855 159.001 103.349 158.351 103.791C157.701 104.233 156.973 104.584 156.167 104.844C155.387 105.104 154.503 105.234 153.515 105.234ZM153.671 102.387C155.101 102.387 156.284 102.114 157.22 101.568C158.156 101.022 159.014 100.398 159.794 99.696V95.094C158.78 95.094 157.727 95.133 156.635 95.211C155.543 95.263 154.516 95.406 153.554 95.64C152.592 95.874 151.812 96.277 151.214 96.849C150.642 97.395 150.356 98.175 150.356 99.189C150.356 100.229 150.629 101.022 151.175 101.568C151.747 102.114 152.579 102.387 153.671 102.387ZM171.335 105.078C170.295 105.078 169.775 104.792 169.775 104.22V76.53C169.775 75.958 170.295 75.672 171.335 75.672H171.491C172.531 75.672 173.051 75.958 173.051 76.53V87.06C173.727 86.384 174.572 85.773 175.586 85.227C176.626 84.655 177.77 84.369 179.018 84.369C179.642 84.369 180.305 84.46 181.007 84.642C181.735 84.798 182.411 85.097 183.035 85.539C183.685 85.981 184.205 86.618 184.595 87.45C185.011 88.282 185.219 89.361 185.219 90.687V104.22C185.219 104.792 184.699 105.078 183.659 105.078H183.503C182.463 105.078 181.943 104.792 181.943 104.22V90.999C181.943 89.855 181.605 88.945 180.929 88.269C180.279 87.567 179.291 87.216 177.965 87.216C177.237 87.216 176.574 87.359 175.976 87.645C175.378 87.905 174.858 88.217 174.416 88.581C173.974 88.945 173.636 89.27 173.402 89.556C173.168 89.816 173.051 89.946 173.051 89.946V104.22C173.051 104.792 172.531 105.078 171.491 105.078H171.335ZM196.467 105.234C195.973 105.234 195.44 105.156 194.868 105C194.296 104.87 193.75 104.623 193.23 104.259C192.71 103.869 192.281 103.323 191.943 102.621C191.605 101.893 191.436 100.97 191.436 99.852V76.53C191.436 75.958 191.956 75.672 192.996 75.672H193.152C194.192 75.672 194.712 75.958 194.712 76.53V99.54C194.712 100.71 194.92 101.49 195.336 101.88C195.752 102.244 196.246 102.426 196.818 102.426C197.39 102.426 197.767 102.4 197.949 102.348C198.131 102.27 198.313 102.231 198.495 102.231C198.677 102.231 198.82 102.361 198.924 102.621C199.054 102.881 199.145 103.167 199.197 103.479C199.275 103.765 199.314 103.96 199.314 104.064C199.314 104.402 199.145 104.662 198.807 104.844C198.495 105 198.118 105.104 197.676 105.156C197.234 105.208 196.831 105.234 196.467 105.234ZM204.691 105.078C203.651 105.078 203.131 104.792 203.131 104.22V90.531C203.131 89.465 203.092 88.581 203.014 87.879C202.936 87.177 202.858 86.644 202.78 86.28C202.702 85.89 202.663 85.669 202.663 85.617C202.663 85.435 202.741 85.292 202.897 85.188C203.079 85.058 203.287 84.967 203.521 84.915C203.755 84.837 203.989 84.785 204.223 84.759C204.457 84.733 204.639 84.72 204.769 84.72C205.081 84.72 205.315 84.863 205.471 85.149C205.653 85.435 205.783 85.786 205.861 86.202C205.965 86.592 206.056 86.956 206.134 87.294C206.784 86.54 207.616 85.864 208.63 85.266C209.67 84.668 210.814 84.369 212.062 84.369C212.712 84.369 213.388 84.46 214.09 84.642C214.818 84.798 215.494 85.11 216.118 85.578C216.768 86.046 217.275 86.722 217.639 87.606C218.393 86.722 219.303 85.968 220.369 85.344C221.461 84.694 222.618 84.369 223.84 84.369C224.464 84.369 225.127 84.46 225.829 84.642C226.531 84.798 227.194 85.097 227.818 85.539C228.468 85.981 228.988 86.618 229.378 87.45C229.768 88.282 229.963 89.361 229.963 90.687V104.22C229.963 104.792 229.443 105.078 228.403 105.078H228.247C227.207 105.078 226.687 104.792 226.687 104.22V90.999C226.687 89.855 226.375 88.945 225.751 88.269C225.127 87.567 224.191 87.216 222.943 87.216C222.241 87.216 221.591 87.359 220.993 87.645C220.421 87.931 219.901 88.269 219.433 88.659C218.991 89.023 218.64 89.361 218.38 89.673C218.146 89.985 218.003 90.167 217.951 90.219L217.912 88.893C218.042 89.179 218.12 89.491 218.146 89.829C218.172 90.141 218.185 90.44 218.185 90.726V104.22C218.185 104.792 217.665 105.078 216.625 105.078H216.469C215.429 105.078 214.909 104.792 214.909 104.22V90.999C214.909 89.855 214.597 88.945 213.973 88.269C213.349 87.567 212.413 87.216 211.165 87.216C210.463 87.216 209.813 87.359 209.215 87.645C208.643 87.905 208.136 88.217 207.694 88.581C207.278 88.919 206.953 89.231 206.719 89.517C206.511 89.777 206.407 89.907 206.407 89.907V104.22C206.407 104.792 205.887 105.078 204.847 105.078H204.691ZM241.455 105.234C239.557 105.234 237.971 104.766 236.697 103.83C235.423 102.868 234.786 101.386 234.786 99.384C234.786 97.746 235.176 96.459 235.956 95.523C236.736 94.561 237.763 93.859 239.037 93.417C240.311 92.949 241.702 92.65 243.21 92.52C244.744 92.39 246.252 92.312 247.734 92.286V90.453C247.734 89.569 247.422 88.802 246.798 88.152C246.174 87.502 245.056 87.177 243.444 87.177C242.274 87.177 241.247 87.32 240.363 87.606C239.505 87.866 238.816 88.139 238.296 88.425C237.802 88.685 237.49 88.815 237.36 88.815C237.178 88.815 236.983 88.685 236.775 88.425C236.567 88.165 236.385 87.879 236.229 87.567C236.073 87.229 235.995 86.995 235.995 86.865C235.995 86.527 236.333 86.163 237.009 85.773C237.685 85.383 238.582 85.058 239.7 84.798C240.818 84.512 242.027 84.369 243.327 84.369C244.939 84.369 246.317 84.616 247.461 85.11C248.605 85.578 249.476 86.267 250.074 87.177C250.698 88.087 251.01 89.192 251.01 90.492V99.228C251.01 100.294 251.049 101.178 251.127 101.88C251.205 102.582 251.283 103.115 251.361 103.479C251.439 103.843 251.478 104.064 251.478 104.142C251.478 104.324 251.387 104.48 251.205 104.61C251.049 104.714 250.854 104.805 250.62 104.883C250.386 104.935 250.152 104.974 249.918 105C249.684 105.026 249.502 105.039 249.372 105.039C249.06 105.039 248.813 104.896 248.631 104.61C248.475 104.298 248.345 103.934 248.241 103.518C248.163 103.076 248.085 102.673 248.007 102.309C247.513 102.855 246.941 103.349 246.291 103.791C245.641 104.233 244.913 104.584 244.107 104.844C243.327 105.104 242.443 105.234 241.455 105.234ZM241.611 102.387C243.041 102.387 244.224 102.114 245.16 101.568C246.096 101.022 246.954 100.398 247.734 99.696V95.094C246.72 95.094 245.667 95.133 244.575 95.211C243.483 95.263 242.456 95.406 241.494 95.64C240.532 95.874 239.752 96.277 239.154 96.849C238.582 97.395 238.296 98.175 238.296 99.189C238.296 100.229 238.569 101.022 239.115 101.568C239.687 102.114 240.519 102.387 241.611 102.387ZM259.041 105.078C258.001 105.078 257.481 104.792 257.481 104.22V90.531C257.481 89.465 257.442 88.581 257.364 87.879C257.286 87.177 257.208 86.644 257.13 86.28C257.052 85.89 257.013 85.669 257.013 85.617C257.013 85.435 257.091 85.292 257.247 85.188C257.429 85.058 257.637 84.967 257.871 84.915C258.105 84.837 258.339 84.785 258.573 84.759C258.807 84.733 258.989 84.72 259.119 84.72C259.431 84.72 259.665 84.863 259.821 85.149C260.003 85.435 260.133 85.786 260.211 86.202C260.315 86.592 260.406 86.956 260.484 87.294C261.316 86.384 262.265 85.669 263.331 85.149C264.397 84.629 265.476 84.369 266.568 84.369C268.57 84.369 270.13 84.928 271.248 86.046C272.366 87.164 272.925 88.711 272.925 90.687V104.22C272.925 104.792 272.405 105.078 271.365 105.078H271.209C270.169 105.078 269.649 104.792 269.649 104.22V90.999C269.649 89.803 269.298 88.88 268.596 88.23C267.92 87.554 266.945 87.216 265.671 87.216C264.787 87.216 263.903 87.463 263.019 87.957C262.161 88.451 261.407 89.114 260.757 89.946V104.22C260.757 104.792 260.237 105.078 259.197 105.078H259.041ZM284.416 105.234C282.518 105.234 280.932 104.766 279.658 103.83C278.384 102.868 277.747 101.386 277.747 99.384C277.747 97.746 278.137 96.459 278.917 95.523C279.697 94.561 280.724 93.859 281.998 93.417C283.272 92.949 284.663 92.65 286.171 92.52C287.705 92.39 289.213 92.312 290.695 92.286V90.453C290.695 89.569 290.383 88.802 289.759 88.152C289.135 87.502 288.017 87.177 286.405 87.177C285.235 87.177 284.208 87.32 283.324 87.606C282.466 87.866 281.777 88.139 281.257 88.425C280.763 88.685 280.451 88.815 280.321 88.815C280.139 88.815 279.944 88.685 279.736 88.425C279.528 88.165 279.346 87.879 279.19 87.567C279.034 87.229 278.956 86.995 278.956 86.865C278.956 86.527 279.294 86.163 279.97 85.773C280.646 85.383 281.543 85.058 282.661 84.798C283.779 84.512 284.988 84.369 286.288 84.369C287.9 84.369 289.278 84.616 290.422 85.11C291.566 85.578 292.437 86.267 293.035 87.177C293.659 88.087 293.971 89.192 293.971 90.492V99.228C293.971 100.294 294.01 101.178 294.088 101.88C294.166 102.582 294.244 103.115 294.322 103.479C294.4 103.843 294.439 104.064 294.439 104.142C294.439 104.324 294.348 104.48 294.166 104.61C294.01 104.714 293.815 104.805 293.581 104.883C293.347 104.935 293.113 104.974 292.879 105C292.645 105.026 292.463 105.039 292.333 105.039C292.021 105.039 291.774 104.896 291.592 104.61C291.436 104.298 291.306 103.934 291.202 103.518C291.124 103.076 291.046 102.673 290.968 102.309C290.474 102.855 289.902 103.349 289.252 103.791C288.602 104.233 287.874 104.584 287.068 104.844C286.288 105.104 285.404 105.234 284.416 105.234ZM284.572 102.387C286.002 102.387 287.185 102.114 288.121 101.568C289.057 101.022 289.915 100.398 290.695 99.696V95.094C289.681 95.094 288.628 95.133 287.536 95.211C286.444 95.263 285.417 95.406 284.455 95.64C283.493 95.874 282.713 96.277 282.115 96.849C281.543 97.395 281.257 98.175 281.257 99.189C281.257 100.229 281.53 101.022 282.076 101.568C282.648 102.114 283.48 102.387 284.572 102.387ZM306.955 113.268C305.421 113.268 304.056 113.099 302.86 112.761C301.664 112.449 300.728 111.916 300.052 111.162C299.376 110.408 299.038 109.407 299.038 108.159C299.038 107.015 299.363 106.014 300.013 105.156C300.663 104.298 301.469 103.661 302.431 103.245L302.47 103.167C302.028 102.803 301.664 102.361 301.378 101.841C301.118 101.321 300.988 100.697 300.988 99.969C300.988 99.137 301.17 98.422 301.534 97.824C301.898 97.2 302.418 96.667 303.094 96.225C301.976 95.679 301.131 94.925 300.559 93.963C300.013 92.975 299.74 91.896 299.74 90.726C299.74 89.53 300.026 88.464 300.598 87.528C301.196 86.566 302.067 85.799 303.211 85.227C304.355 84.655 305.759 84.369 307.423 84.369C307.839 84.369 308.242 84.395 308.632 84.447C309.022 84.473 309.386 84.525 309.724 84.603H316.822C317.342 84.603 317.602 84.993 317.602 85.773V86.241C317.602 87.021 317.342 87.411 316.822 87.411C316.51 87.411 316.042 87.385 315.418 87.333C314.794 87.281 314.261 87.216 313.819 87.138L313.78 87.216C314.3 87.788 314.638 88.347 314.794 88.893C314.976 89.439 315.067 90.05 315.067 90.726C315.067 91.922 314.768 93.001 314.17 93.963C313.598 94.925 312.74 95.692 311.596 96.264C310.478 96.836 309.074 97.122 307.384 97.122C306.266 97.122 305.395 97.304 304.771 97.668C304.173 98.032 303.874 98.643 303.874 99.501C303.874 100.281 304.173 100.853 304.771 101.217C305.369 101.555 306.123 101.789 307.033 101.919C307.969 102.023 308.944 102.14 309.958 102.27C311.128 102.4 312.181 102.647 313.117 103.011C314.079 103.349 314.833 103.869 315.379 104.571C315.951 105.247 316.237 106.183 316.237 107.379C316.237 108.627 315.886 109.68 315.184 110.538C314.508 111.422 313.481 112.098 312.103 112.566C310.725 113.034 309.009 113.268 306.955 113.268ZM307.384 110.577C309.334 110.577 310.777 110.33 311.713 109.836C312.649 109.368 313.117 108.614 313.117 107.574C313.117 106.794 312.805 106.222 312.181 105.858C311.583 105.494 310.816 105.234 309.88 105.078C308.944 104.948 307.982 104.844 306.994 104.766C306.006 104.662 305.135 104.493 304.381 104.259C303.757 104.545 303.211 104.948 302.743 105.468C302.301 105.988 302.08 106.677 302.08 107.535C302.08 108.627 302.483 109.407 303.289 109.875C304.121 110.343 305.486 110.577 307.384 110.577ZM307.384 94.392C308.632 94.392 309.698 94.132 310.582 93.612C311.492 93.092 311.947 92.143 311.947 90.765C311.947 89.361 311.492 88.399 310.582 87.879C309.698 87.359 308.632 87.099 307.384 87.099C306.136 87.099 305.07 87.359 304.186 87.879C303.302 88.399 302.86 89.361 302.86 90.765C302.86 92.143 303.302 93.092 304.186 93.612C305.07 94.132 306.136 94.392 307.384 94.392ZM329.316 105.234C326.092 105.234 323.687 104.389 322.101 102.699C320.541 101.009 319.761 98.422 319.761 94.938C319.761 92.624 320.099 90.687 320.775 89.127C321.477 87.567 322.504 86.384 323.856 85.578C325.208 84.772 326.872 84.369 328.848 84.369C330.642 84.369 332.124 84.759 333.294 85.539C334.49 86.319 335.387 87.463 335.985 88.971C336.583 90.479 336.882 92.338 336.882 94.548C336.882 94.704 336.804 94.912 336.648 95.172C336.518 95.406 336.349 95.627 336.141 95.835C335.933 96.043 335.751 96.147 335.595 96.147H323.271C323.427 98.305 323.986 99.891 324.948 100.905C325.91 101.919 327.353 102.426 329.277 102.426C330.421 102.426 331.383 102.296 332.163 102.036C332.969 101.75 333.606 101.477 334.074 101.217C334.542 100.931 334.841 100.788 334.971 100.788C335.153 100.788 335.348 100.918 335.556 101.178C335.764 101.438 335.946 101.724 336.102 102.036C336.258 102.348 336.336 102.582 336.336 102.738C336.336 102.972 336.154 103.232 335.79 103.518C335.426 103.804 334.919 104.077 334.269 104.337C333.645 104.597 332.904 104.818 332.046 105C331.214 105.156 330.304 105.234 329.316 105.234ZM323.271 93.339H333.411C333.411 91.285 333.021 89.751 332.241 88.737C331.461 87.697 330.291 87.177 328.731 87.177C327.041 87.177 325.741 87.697 324.831 88.737C323.921 89.751 323.401 91.285 323.271 93.339ZM343.515 105.078C342.475 105.078 341.955 104.792 341.955 104.22V90.531C341.955 89.465 341.916 88.581 341.838 87.879C341.76 87.177 341.682 86.644 341.604 86.28C341.526 85.89 341.487 85.669 341.487 85.617C341.487 85.435 341.565 85.292 341.721 85.188C341.903 85.058 342.111 84.967 342.345 84.915C342.579 84.837 342.813 84.785 343.047 84.759C343.281 84.733 343.463 84.72 343.593 84.72C343.905 84.72 344.139 84.863 344.295 85.149C344.477 85.435 344.607 85.786 344.685 86.202C344.789 86.592 344.88 86.956 344.958 87.294C345.608 86.54 346.44 85.864 347.454 85.266C348.494 84.668 349.638 84.369 350.886 84.369C351.536 84.369 352.212 84.46 352.914 84.642C353.642 84.798 354.318 85.11 354.942 85.578C355.592 86.046 356.099 86.722 356.463 87.606C357.217 86.722 358.127 85.968 359.193 85.344C360.285 84.694 361.442 84.369 362.664 84.369C363.288 84.369 363.951 84.46 364.653 84.642C365.355 84.798 366.018 85.097 366.642 85.539C367.292 85.981 367.812 86.618 368.202 87.45C368.592 88.282 368.787 89.361 368.787 90.687V104.22C368.787 104.792 368.267 105.078 367.227 105.078H367.071C366.031 105.078 365.511 104.792 365.511 104.22V90.999C365.511 89.855 365.199 88.945 364.575 88.269C363.951 87.567 363.015 87.216 361.767 87.216C361.065 87.216 360.415 87.359 359.817 87.645C359.245 87.931 358.725 88.269 358.257 88.659C357.815 89.023 357.464 89.361 357.204 89.673C356.97 89.985 356.827 90.167 356.775 90.219L356.736 88.893C356.866 89.179 356.944 89.491 356.97 89.829C356.996 90.141 357.009 90.44 357.009 90.726V104.22C357.009 104.792 356.489 105.078 355.449 105.078H355.293C354.253 105.078 353.733 104.792 353.733 104.22V90.999C353.733 89.855 353.421 88.945 352.797 88.269C352.173 87.567 351.237 87.216 349.989 87.216C349.287 87.216 348.637 87.359 348.039 87.645C347.467 87.905 346.96 88.217 346.518 88.581C346.102 88.919 345.777 89.231 345.543 89.517C345.335 89.777 345.231 89.907 345.231 89.907V104.22C345.231 104.792 344.711 105.078 343.671 105.078H343.515ZM383.398 105.234C380.174 105.234 377.769 104.389 376.183 102.699C374.623 101.009 373.843 98.422 373.843 94.938C373.843 92.624 374.181 90.687 374.857 89.127C375.559 87.567 376.586 86.384 377.938 85.578C379.29 84.772 380.954 84.369 382.93 84.369C384.724 84.369 386.206 84.759 387.376 85.539C388.572 86.319 389.469 87.463 390.067 88.971C390.665 90.479 390.964 92.338 390.964 94.548C390.964 94.704 390.886 94.912 390.73 95.172C390.6 95.406 390.431 95.627 390.223 95.835C390.015 96.043 389.833 96.147 389.677 96.147H377.353C377.509 98.305 378.068 99.891 379.03 100.905C379.992 101.919 381.435 102.426 383.359 102.426C384.503 102.426 385.465 102.296 386.245 102.036C387.051 101.75 387.688 101.477 388.156 101.217C388.624 100.931 388.923 100.788 389.053 100.788C389.235 100.788 389.43 100.918 389.638 101.178C389.846 101.438 390.028 101.724 390.184 102.036C390.34 102.348 390.418 102.582 390.418 102.738C390.418 102.972 390.236 103.232 389.872 103.518C389.508 103.804 389.001 104.077 388.351 104.337C387.727 104.597 386.986 104.818 386.128 105C385.296 105.156 384.386 105.234 383.398 105.234ZM377.353 93.339H387.493C387.493 91.285 387.103 89.751 386.323 88.737C385.543 87.697 384.373 87.177 382.813 87.177C381.123 87.177 379.823 87.697 378.913 88.737C378.003 89.751 377.483 91.285 377.353 93.339ZM397.636 105.078C396.596 105.078 396.076 104.792 396.076 104.22V90.531C396.076 89.465 396.037 88.581 395.959 87.879C395.881 87.177 395.803 86.644 395.725 86.28C395.647 85.89 395.608 85.669 395.608 85.617C395.608 85.435 395.686 85.292 395.842 85.188C396.024 85.058 396.232 84.967 396.466 84.915C396.7 84.837 396.934 84.785 397.168 84.759C397.402 84.733 397.584 84.72 397.714 84.72C398.026 84.72 398.26 84.863 398.416 85.149C398.598 85.435 398.728 85.786 398.806 86.202C398.91 86.592 399.001 86.956 399.079 87.294C399.911 86.384 400.86 85.669 401.926 85.149C402.992 84.629 404.071 84.369 405.163 84.369C407.165 84.369 408.725 84.928 409.843 86.046C410.961 87.164 411.52 88.711 411.52 90.687V104.22C411.52 104.792 411 105.078 409.96 105.078H409.804C408.764 105.078 408.244 104.792 408.244 104.22V90.999C408.244 89.803 407.893 88.88 407.191 88.23C406.515 87.554 405.54 87.216 404.266 87.216C403.382 87.216 402.498 87.463 401.614 87.957C400.756 88.451 400.002 89.114 399.352 89.946V104.22C399.352 104.792 398.832 105.078 397.792 105.078H397.636ZM423.635 105.234C423.141 105.234 422.608 105.156 422.036 105C421.464 104.87 420.918 104.623 420.398 104.259C419.878 103.869 419.449 103.323 419.111 102.621C418.773 101.893 418.604 100.97 418.604 99.852V87.411H416.654C416.134 87.411 415.874 87.021 415.874 86.241V85.773C415.874 84.993 416.134 84.603 416.654 84.603H418.604L419.072 80.508C419.124 79.936 419.54 79.65 420.32 79.65H420.71C421.49 79.65 421.88 79.936 421.88 80.508V84.603H425.156C425.676 84.603 425.936 84.993 425.936 85.773V86.241C425.936 87.021 425.676 87.411 425.156 87.411H421.88V99.54C421.88 100.71 422.088 101.49 422.504 101.88C422.92 102.244 423.414 102.426 423.986 102.426C424.558 102.426 424.935 102.4 425.117 102.348C425.299 102.27 425.481 102.231 425.663 102.231C425.845 102.231 425.988 102.361 426.092 102.621C426.222 102.881 426.313 103.167 426.365 103.479C426.443 103.765 426.482 103.96 426.482 104.064C426.482 104.402 426.313 104.662 425.975 104.844C425.663 105 425.286 105.104 424.844 105.156C424.402 105.208 423.999 105.234 423.635 105.234Z" fill="#C7CBD0"/>
</svg>
